<svg width="44" height="39" viewBox="0 0 44 39" fill="none" xmlns="http://www.w3.org/2000/svg">
    <path d="M28.5213 10.4915L29.5373 6.69949C29.6803 6.16602 29.3637 5.61769 28.8302 5.47474L23.1772 3.96001C22.6437 3.81706 22.0953 4.13365 21.9524 4.66711L20.9363 8.45916L19.5394 8.08486C19.1368 7.97697 18.7095 8.13017 18.4671 8.4693L14.9411 13.4024C14.8472 13.5339 14.7865 13.6861 14.7642 13.8461L12.3943 30.8764C12.3247 31.3762 12.6385 31.8495 13.1259 31.9801L23.5247 34.7665C24.0121 34.8971 24.5205 34.644 24.7102 34.1764L31.1729 18.2428C31.2336 18.0931 31.2571 17.9309 31.2415 17.7701L30.6545 11.7349C30.6142 11.32 30.3207 10.9737 29.918 10.8658L28.5213 10.4915ZM23.7028 6.28463L27.2127 7.22512L26.4838 9.94559L22.9738 9.0051L23.7028 6.28463ZM27.9602 12.525C28.3628 12.6329 28.6563 12.9792 28.6967 13.3941L28.9936 16.4462L17.55 13.3799L19.3332 10.8851C19.5756 10.546 20.0029 10.3928 20.4055 10.5007L27.9602 12.525ZM15.4721 30.425C14.9847 30.2944 14.6709 29.8211 14.7405 29.3213L16.6871 15.3324L28.7646 18.5686L23.4561 31.6566C23.2664 32.1242 22.758 32.3773 22.2706 32.2466L15.4721 30.425Z" fill="white"/>
    <path d="M10.146 7.68822L8.40715 6.49421C6.75917 8.89418 5.5381 11.5496 4.77791 14.3867C3.77528 18.1286 3.62439 21.9427 4.32941 25.7232L6.40301 25.3365C5.75624 21.8681 5.89496 18.3678 6.81541 14.9326C7.51344 12.3276 8.63401 9.89015 10.146 7.68822Z" fill="white"/>
    <path d="M13.5026 10.2482L11.7497 9.07475C10.4432 11.0264 9.4686 13.1809 8.85293 15.4786C7.99132 18.6942 7.87821 21.9596 8.5166 25.184L10.5858 24.7743C10.0107 21.8694 10.1131 18.9255 10.8904 16.0246C11.4461 13.9507 12.3249 12.0072 13.5026 10.2482Z" fill="white"/>
    <path d="M40.3544 15.0544L38.2515 15.219C38.4599 17.882 38.2117 20.5531 37.5136 23.1582C36.5932 26.5934 34.9632 29.6941 32.6689 32.3744L34.2713 33.7461C36.7721 30.8246 38.5485 27.446 39.5511 23.7041C40.3113 20.8671 40.5816 17.9569 40.3544 15.0544Z" fill="white"/>
    <path d="M36.1696 15.6181L34.0648 15.7579C34.2051 17.8701 33.9945 19.9926 33.4388 22.0664C32.6615 24.9673 31.2783 27.568 29.3277 29.7962L30.9149 31.1857C33.0799 28.7124 34.6147 25.828 35.4763 22.6124C36.0919 20.3147 36.3252 17.9615 36.1696 15.6181Z" fill="white"/>
</svg>
